<svg id="Layer_1" enable-background="new 0 0 512 512" height="512" viewBox="0 0 512 512" width="512" xmlns="http://www.w3.org/2000/svg"><path d="m458 157.384v-104.412h-118.493l-43.081-38.03c-22.521-19.832-56.543-19.894-79.146-.139l-217.28 190.093v52.076h40v195c0 33.084 26.916 60 60 60h122v-148h70v148h120c33.084 0 60-26.916 60-60v-195h40v-52.038zm-26 294.588c0 11.028-8.972 20-20 20h-80v-148h-150v148h-82c-11.028 0-20-8.972-20-20v-195h352zm-385.055-235 196.666-172.058c7.532-6.583 18.872-6.563 26.362.032l108.027 95.362v-47.336h40v82.487l47.144 41.513z"/></svg>